<svg xmlns="http://www.w3.org/2000/svg" xmlns:xlink="http://www.w3.org/1999/xlink" viewBox="0 0 311 341"><defs><clipPath id="clip-path"><path d="M257.65,242.37V62.42C217.7,77,177.59,91.25,138,106.81,110.41,117.65,80.2,129.53,64.81,187,60.26,204,54.58,225.37,50,242.37H.68c5.63-21,13.36-46.46,19-67.47C41.15,94.7,82.89,78.29,121,63.31,171.29,43.54,222.34,25.66,273.09,7.09,303.51-5.28,303.9,15.42,304.44,29V242.37Zm-138-114.58a78.38,78.38,0,0,0-14.07,9.86c-14.91,13.27-23,32.21-28,51.11l-14.1,51.9h56.22ZM180.77,103q-19,7.09-38,14.5c-3.37,1.32-6.7,2.64-10,4V240.66h47.92Zm63.7,137.69v-161c-16.85,6.13-33.7,12.22-50.51,18.43V240.66Z" style="fill:none"/></clipPath><linearGradient id="Pride_Rainbow" y1="170.5" x2="311" y2="170.5" gradientUnits="userSpaceOnUse"><stop offset="0" stop-color="#ec1c24"/><stop offset="0.2" stop-color="#f16522"/><stop offset="0.4" stop-color="#ffdd15"/><stop offset="0.6" stop-color="#00a14b"/><stop offset="0.8" stop-color="#224099"/><stop offset="1" stop-color="#7f3f97"/></linearGradient></defs><title>pride-logo</title><g id="Layer_2" data-name="Layer 2"><g id="Layer_1-2" data-name="Layer 1"><g style="clip-path:url(#clip-path)"><rect width="311" height="341" style="fill:url(#Pride_Rainbow)"/></g></g></g></svg>
