<svg id="Layer_1" data-name="Layer 1" xmlns="http://www.w3.org/2000/svg" viewBox="0 0 208.75 174.23"><defs><style>.cls-1{fill:#343f55;fill-rule:evenodd;}</style></defs><path class="cls-1" d="M208.75,5.17a5.54,5.54,0,0,0-.1-1c0-.1-.05-.19-.08-.29s-.13-.45-.21-.67l-.15-.32a4.37,4.37,0,0,0-.32-.55c-.07-.11-.14-.22-.22-.33l-.14-.19c-.08-.09-.17-.16-.25-.24l-.2-.24-.16-.11a5.07,5.07,0,0,0-.46-.35l-.39-.25a5.05,5.05,0,0,0-.53-.24l-.42-.17c-.19-.06-.39-.09-.58-.13L204.11,0a5.58,5.58,0,0,0-.71,0H203c-2.68.24-38.09,3.62-77.89,21.37C101.21,32,82.71,48.32,71.07,68.13l-3,1.3C25.46,88.45,0,125.42,0,168.33v.72a5.19,5.19,0,0,0,3,4.7,5.28,5.28,0,0,0,2.19.48H146.64a4.54,4.54,0,0,0,.82-.07l.36-.09c.17-.05.34-.08.51-.14s.25-.12.38-.18.3-.12.44-.2a5.63,5.63,0,0,0,.75-.53l57-48.06a5.16,5.16,0,0,0,1.84-4V5.17ZM157.21,153.28l-5.47,4.61V55.64l46.64-39.31V118.58ZM64.09,126.17h77.28v37.69h-122Zm65.23-95.32a267.23,267.23,0,0,1,56.81-17.77L144.44,48.23A264.47,264.47,0,0,0,88,61.52C98.32,48.92,112.24,38.47,129.32,30.85ZM78.09,76.43a267.64,267.64,0,0,1,63.28-17.35V115.8H67.49A91.66,91.66,0,0,1,78.09,76.43ZM63.86,83.05A102.7,102.7,0,0,0,57,118.56L11,157.38C14.48,125.84,33.21,99.46,63.86,83.05Z"/></svg>